<svg width="908" height="332" xmlns="http://www.w3.org/2000/svg" xmlns:xlink="http://www.w3.org/1999/xlink" overflow="hidden"><defs><clipPath id="clip0"><rect x="104" y="116" width="908" height="332"/></clipPath></defs><g clip-path="url(#clip0)" transform="translate(-104 -116)"><path d="M1002.23 142C1004.86 142 1007 144.136 1007 146.771L1007 305.229C1007 307.864 1004.86 310 1002.23 310L651.771 310C649.136 310 647 307.864 647 305.229L647 146.771C647 144.136 649.136 142 651.771 142Z" stroke="#000000" stroke-width="2" stroke-linecap="square" stroke-miterlimit="8" stroke-dasharray="6 2" fill="#F7F7F7" fill-rule="evenodd"/><text font-family="Calibri,Calibri_MSFontService,sans-serif" font-weight="700" font-size="15" transform="translate(827.152 175)">Utilization</text><text font-family="Calibri,Calibri_MSFontService,sans-serif" font-weight="700" font-size="15" transform="translate(841.985 192)">Score</text><path d="M629.229 142C631.864 142 634 144.136 634 146.771L634 305.229C634 307.864 631.864 310 629.229 310L323.771 310C321.136 310 319 307.864 319 305.229L319 146.771C319 144.136 321.136 142 323.771 142Z" stroke="#000000" stroke-width="2" stroke-linecap="square" stroke-miterlimit="8" stroke-dasharray="6 2" fill="#F7F7F7" fill-rule="evenodd"/><path d="M1002.88 333C1004.6 333 1006 334.399 1006 336.124L1006 439.876C1006 441.601 1004.6 443 1002.88 443L322.124 443C320.399 443 319 441.601 319 439.876L319 336.124C319 334.399 320.399 333 322.124 333Z" stroke="#000000" stroke-width="2" stroke-linecap="square" stroke-miterlimit="8" stroke-dasharray="6 2" fill="#F7F7F7" fill-rule="evenodd"/><path d="M0 0 11.5 0 11.5 0 28.75 0 69 0 69 40.8333 69 40.8333 69 58.3333 69 70 28.75 70 9.9022 97.4883 11.5 70 0 70 0 58.3333 0 40.8333 0 40.8333Z" stroke="#000000" stroke-miterlimit="8" fill="#FFFFFF" fill-rule="evenodd" transform="matrix(-1.83697e-16 -1 -1 1.83697e-16 404.5 436.5)"/><rect x="344.5" y="354.5" width="70" height="70" stroke="#000000" stroke-miterlimit="8" fill="#FFFFFF"/><rect x="340.5" y="360.5" width="70" height="70" stroke="#000000" stroke-miterlimit="8" fill="#FFFFFF"/><path d="M116 144.772C116 143.241 117.241 142 118.772 142L303.228 142C304.759 142 306 143.241 306 144.772L306 306.228C306 307.759 304.759 309 303.228 309L118.772 309C117.241 309 116 307.759 116 306.228Z" stroke="#000000" stroke-width="2" stroke-miterlimit="8" fill="#F7F7F7" fill-rule="evenodd"/><path d="M143 424.109C143 417.974 147.974 413 154.109 413L294.891 413C301.026 413 306 417.974 306 424.109L306 425.891C306 432.026 301.026 437 294.891 437L154.109 437C147.974 437 143 432.026 143 425.891Z" stroke="#000000" stroke-width="2" stroke-miterlimit="8" fill="#F7F7F7" fill-rule="evenodd"/><path d="M213.25 319.5 213.25 330.284 217.5 330.284 209 339.5 200.5 330.284 204.75 330.284 204.75 319.5Z" stroke="#172C51" stroke-width="1.33333" stroke-miterlimit="8" fill="#F4B183" fill-rule="evenodd"/><text font-family="Calibri,Calibri_MSFontService,sans-serif" font-weight="700" font-size="19" transform="translate(116.545 431)">N</text><text font-family="DengXian,DengXian_MSFontService,sans-serif" font-weight="700" font-size="19" transform="translate(128.878 431)">×</text><path d="M213.25 389.5 213.25 399.284 217.5 399.284 209 408.5 200.5 399.284 204.75 399.284 204.75 389.5Z" stroke="#172C51" stroke-width="1.33333" stroke-miterlimit="8" fill="#F4B183" fill-rule="evenodd"/><rect x="334.5" y="367.5" width="14" height="14" stroke="#A6A6A6" stroke-width="0.333333" stroke-miterlimit="8" fill="#9DC3E6"/><rect x="334.5" y="381.5" width="14" height="14" stroke="#A6A6A6" stroke-width="0.333333" stroke-miterlimit="8" fill="#5B9BD5"/><rect x="348.5" y="381.5" width="14" height="14" stroke="#A6A6A6" stroke-width="0.333333" stroke-miterlimit="8" fill="#9DC3E6"/><rect x="334.5" y="395.5" width="14" height="14" stroke="#A6A6A6" stroke-width="0.333333" stroke-miterlimit="8" fill="#9DC3E6"/><rect x="348.5" y="395.5" width="14" height="14" stroke="#A6A6A6" stroke-width="0.333333" stroke-miterlimit="8" fill="#EBF1FE"/><rect x="362.5" y="395.5" width="14" height="14" stroke="#A6A6A6" stroke-width="0.333333" stroke-miterlimit="8" fill="#5B9BD5"/><rect x="334.5" y="409.5" width="14" height="14" stroke="#A6A6A6" stroke-width="0.333333" stroke-miterlimit="8" fill="#5B9BD5"/><rect x="348.5" y="409.5" width="14" height="14" stroke="#A6A6A6" stroke-width="0.333333" stroke-miterlimit="8" fill="#9DC3E6"/><rect x="362.5" y="409.5" width="14" height="14" stroke="#A6A6A6" stroke-width="0.333333" stroke-miterlimit="8" fill="#9DC3E6"/><rect x="376.5" y="409.5" width="14" height="14" stroke="#A6A6A6" stroke-width="0.333333" stroke-miterlimit="8" fill="#EBF1FE"/><rect x="334.5" y="423.5" width="14" height="13" stroke="#A6A6A6" stroke-width="0.333333" stroke-miterlimit="8" fill="#9DC3E6"/><rect x="348.5" y="423.5" width="14" height="13" stroke="#A6A6A6" stroke-width="0.333333" stroke-miterlimit="8" fill="#F6B3B3"/><rect x="362.5" y="423.5" width="14" height="13" stroke="#A6A6A6" stroke-width="0.333333" stroke-miterlimit="8" fill="#5B9BD5"/><rect x="376.5" y="423.5" width="14" height="13" stroke="#A6A6A6" stroke-width="0.333333" stroke-miterlimit="8" fill="#EBF1FE"/><rect x="390.5" y="423.5" width="14" height="13" stroke="#A6A6A6" stroke-width="0.333333" stroke-miterlimit="8" fill="#9DC3E6"/><rect x="334.5" y="367.5" width="70" height="69" stroke="#000000" stroke-miterlimit="8" fill="none"/><rect x="333" y="422" width="43" height="15" stroke="#000000" stroke-width="4" stroke-miterlimit="8" fill="none"/><text font-family="Calibri,Calibri_MSFontService,sans-serif" font-weight="700" font-size="15" transform="translate(324.966 347)">#heads</text><path d="M332.134 368.054C330.494 366.933 329.719 365.211 330.405 364.208L333.664 359.441C334.349 358.438 333.575 356.716 331.934 355.595 333.575 356.716 335.46 356.812 336.146 355.809L339.32 351.165C340.006 350.163 341.891 350.259 343.532 351.38" stroke="#000000" stroke-width="1.33333" stroke-miterlimit="8" fill="none" fill-rule="evenodd"/><path d="M0 1.56204C0 0.699347 0.699348 -6.16674e-16 1.56204 -6.16674e-16L53.438 0C54.3007 -3.08337e-16 55 0.699347 55 1.56204L55 153.438C55 154.301 54.3007 155 53.438 155L1.56204 155C0.699348 155 0 154.301 0 153.438Z" stroke="#000000" stroke-width="1.33333" stroke-miterlimit="8" fill="#FFFFFF" fill-rule="evenodd" transform="matrix(1.83697e-16 1 1 -1.83697e-16 501.5 360.5)"/><text font-family="Calibri,Calibri_MSFontService,sans-serif" font-weight="700" font-size="15" transform="translate(498.799 401)"></text><text font-family="Calibri,Calibri_MSFontService,sans-serif" font-weight="700" font-size="15" transform="translate(502.132 401)">sum( )</text><path d="M0 0 77.0964 0.000104987" stroke="#000000" stroke-width="2" stroke-miterlimit="8" fill="none" fill-rule="evenodd" transform="matrix(-1 0 0 1 581.096 385)"/><text font-family="Calibri,Calibri_MSFontService,sans-serif" font-weight="700" font-size="15" transform="translate(587.768 390)">=</text><text font-family="Calibri,Calibri_MSFontService,sans-serif" font-weight="700" font-size="15" transform="translate(591.681 412)">Attn Ratio</text><path d="M0 3.25001 8.9527 3.25001 8.9527 0 16 6.5 8.9527 13 8.9527 9.75001 0 9.75001Z" stroke="#172C51" stroke-width="1.33333" stroke-miterlimit="8" fill="#F4B183" fill-rule="evenodd" transform="matrix(1 -1.22465e-16 -1.22465e-16 -1 481.5 394.5)"/><rect x="535.5" y="367.5" width="14" height="14" stroke="#000000" stroke-miterlimit="8" fill="#F6B3B3"/><text font-family="DengXian,DengXian_MSFontService,sans-serif" font-weight="700" font-size="15" transform="translate(658.166 395)">×</text><text font-family="Calibri,Calibri_MSFontService,sans-serif" font-weight="700" font-size="15" transform="translate(668.333 395)"></text><text font-family="Calibri,Calibri_MSFontService,sans-serif" font-weight="700" font-size="15" transform="translate(671.666 395)">#heads =</text><rect x="610.5" y="374.5" width="24" height="23" stroke="#000000" stroke-width="1.33333" stroke-miterlimit="8" fill="#7FBE89"/><text font-family="Calibri,Calibri_MSFontService,sans-serif" font-weight="700" font-size="15" transform="translate(696.641 434)">Feature Vector</text><path d="M784.5 369C784.5 365.41 787.41 362.5 791 362.5 794.59 362.5 797.5 365.41 797.5 369 797.5 372.59 794.59 375.5 791 375.5 787.41 375.5 784.5 372.59 784.5 369Z" stroke="#000000" stroke-width="1.33333" stroke-miterlimit="8" fill="#96CA9F" fill-rule="evenodd"/><path d="M784.5 388.5C784.5 384.634 787.41 381.5 791 381.5 794.59 381.5 797.5 384.634 797.5 388.5 797.5 392.366 794.59 395.5 791 395.5 787.41 395.5 784.5 392.366 784.5 388.5Z" stroke="#000000" stroke-width="1.33333" stroke-miterlimit="8" fill="#96CA9F" fill-rule="evenodd"/><path d="M784.5 408.5C784.5 404.634 787.41 401.5 791 401.5 794.59 401.5 797.5 404.634 797.5 408.5 797.5 412.366 794.59 415.5 791 415.5 787.41 415.5 784.5 412.366 784.5 408.5Z" stroke="#000000" stroke-width="1.33333" stroke-miterlimit="8" fill="#96CA9F" fill-rule="evenodd"/><path d="M815.5 369C815.5 365.41 818.41 362.5 822 362.5 825.59 362.5 828.5 365.41 828.5 369 828.5 372.59 825.59 375.5 822 375.5 818.41 375.5 815.5 372.59 815.5 369Z" stroke="#000000" stroke-width="1.33333" stroke-miterlimit="8" fill="#BEBFC2" fill-rule="evenodd"/><path d="M815.5 388.5C815.5 384.634 818.41 381.5 822 381.5 825.59 381.5 828.5 384.634 828.5 388.5 828.5 392.366 825.59 395.5 822 395.5 818.41 395.5 815.5 392.366 815.5 388.5Z" stroke="#000000" stroke-width="1.33333" stroke-miterlimit="8" fill="#BEBFC2" fill-rule="evenodd"/><path d="M815.5 408.5C815.5 404.634 818.41 401.5 822 401.5 825.59 401.5 828.5 404.634 828.5 408.5 828.5 412.366 825.59 415.5 822 415.5 818.41 415.5 815.5 412.366 815.5 408.5Z" stroke="#000000" stroke-width="1.33333" stroke-miterlimit="8" fill="#BEBFC2" fill-rule="evenodd"/><path d="M848.5 376.5C848.5 372.634 851.41 369.5 855 369.5 858.59 369.5 861.5 372.634 861.5 376.5 861.5 380.366 858.59 383.5 855 383.5 851.41 383.5 848.5 380.366 848.5 376.5Z" stroke="#000000" stroke-width="1.33333" stroke-miterlimit="8" fill="#F6C09C" fill-rule="evenodd"/><path d="M848.5 398C848.5 394.41 851.41 391.5 855 391.5 858.59 391.5 861.5 394.41 861.5 398 861.5 401.59 858.59 404.5 855 404.5 851.41 404.5 848.5 401.59 848.5 398Z" stroke="#000000" stroke-width="1.33333" stroke-miterlimit="8" fill="#F6C09C" fill-rule="evenodd"/><path d="M0 0 19.572 10.1146" stroke="#000000" stroke-width="1.33333" stroke-miterlimit="8" fill="none" fill-rule="evenodd" transform="matrix(1 -1.22465e-16 -1.22465e-16 -1 828.5 408.615)"/><path d="M0 0 19.572 31.7108" stroke="#000000" stroke-width="1.33333" stroke-miterlimit="8" fill="none" fill-rule="evenodd" transform="matrix(1 -1.22465e-16 -1.22465e-16 -1 828.5 408.211)"/><path d="M828.5 388.5 848.072 398.024" stroke="#000000" stroke-width="1.33333" stroke-miterlimit="8" fill="none" fill-rule="evenodd"/><path d="M0 0 19.572 12.072" stroke="#000000" stroke-width="1.33333" stroke-miterlimit="8" fill="none" fill-rule="evenodd" transform="matrix(1 -1.22465e-16 -1.22465e-16 -1 828.5 388.572)"/><path d="M828.5 368.5 848.072 397.692" stroke="#000000" stroke-width="1.33333" stroke-miterlimit="8" fill="none" fill-rule="evenodd"/><path d="M828.5 368.5 848.072 376.096" stroke="#000000" stroke-width="1.33333" stroke-miterlimit="8" fill="none" fill-rule="evenodd"/><path d="M815.268 408.5 797.5 408.5" stroke="#000000" stroke-width="1.33333" stroke-miterlimit="8" fill="none" fill-rule="evenodd"/><path d="M0 0 17.7678 19.6387" stroke="#000000" stroke-width="1.33333" stroke-miterlimit="8" fill="none" fill-rule="evenodd" transform="matrix(1 -1.22465e-16 -1.22465e-16 -1 797.5 408.139)"/><path d="M0 0 17.7678 39.3065" stroke="#000000" stroke-width="1.33333" stroke-miterlimit="8" fill="none" fill-rule="evenodd" transform="matrix(1 -1.22465e-16 -1.22465e-16 -1 797.5 407.807)"/><path d="M797.5 388.5 815.268 408.139" stroke="#000000" stroke-width="1.33333" stroke-miterlimit="8" fill="none" fill-rule="evenodd"/><path d="M0 0 17.7678 0.000104987" stroke="#000000" stroke-width="1.33333" stroke-miterlimit="8" fill="none" fill-rule="evenodd" transform="matrix(1 -1.22465e-16 -1.22465e-16 -1 797.5 388.5)"/><path d="M0 0 17.7678 19.6677" stroke="#000000" stroke-width="1.33333" stroke-miterlimit="8" fill="none" fill-rule="evenodd" transform="matrix(1 -1.22465e-16 -1.22465e-16 -1 797.5 388.168)"/><path d="M797.5 368.5 815.268 407.807" stroke="#000000" stroke-width="1.33333" stroke-miterlimit="8" fill="none" fill-rule="evenodd"/><path d="M797.5 368.5 815.268 388.168" stroke="#000000" stroke-width="1.33333" stroke-miterlimit="8" fill="none" fill-rule="evenodd"/><path d="M0 0 17.7678 0.000104987" stroke="#000000" stroke-width="1.33333" stroke-miterlimit="8" fill="none" fill-rule="evenodd" transform="matrix(1 -1.22465e-16 -1.22465e-16 -1 797.5 368.5)"/><text font-family="Calibri,Calibri_MSFontService,sans-serif" font-weight="700" font-size="15" transform="translate(799.316 434)">Detector</text><path d="M0 3.25 9.9527 3.25 9.9527 0 17 6.50001 9.9527 13 9.9527 9.75 0 9.75Z" stroke="#172C51" stroke-width="1.33333" stroke-miterlimit="8" fill="#F4B183" fill-rule="evenodd" transform="matrix(1 -1.22465e-16 -1.22465e-16 -1 760.5 394.5)"/><rect x="535.5" y="390.5" width="14" height="14" stroke="#A6A6A6" stroke-width="0.333333" stroke-miterlimit="8" fill="#9DC3E6"/><rect x="549.5" y="390.5" width="14" height="14" stroke="#A6A6A6" stroke-width="0.333333" stroke-miterlimit="8" fill="#F6B3B3"/><rect x="563.5" y="390.5" width="14" height="14" stroke="#A6A6A6" stroke-width="0.333333" stroke-miterlimit="8" fill="#5B9BD5"/><rect x="535.5" y="391.5" width="41" height="13" stroke="#000000" stroke-miterlimit="8" fill="none"/><path d="M0-1 73.1841-1 73.1841 9.83265 71.1841 9.83265 71.1841 0 72.1841 1 0 1ZM76.1841 8.49932 72.1841 16.4993 68.1841 8.49932Z" transform="matrix(1 0 0 -1 376 429.499)"/><rect x="729.5" y="350.5" width="24" height="24" stroke="#000000" stroke-width="1.33333" stroke-miterlimit="8" fill="#7FBE89"/><rect x="729.5" y="374.5" width="24" height="23" stroke="#000000" stroke-width="1.33333" stroke-miterlimit="8" fill="#B0E0B8"/><rect x="729.5" y="398.5" width="24" height="23" stroke="#000000" stroke-width="1.33333" stroke-miterlimit="8" fill="#B0E0B8"/><path d="M962.5 348.522C962.5 347.958 962.958 347.5 963.522 347.5L997.478 347.5C998.042 347.5 998.5 347.958 998.5 348.522L998.5 414.478C998.5 415.042 998.042 415.5 997.478 415.5L963.522 415.5C962.958 415.5 962.5 415.042 962.5 414.478Z" stroke="#000000" stroke-linecap="square" stroke-miterlimit="8" stroke-dasharray="3 1" fill="#FFFFFF" fill-rule="evenodd"/><text font-family="Wingdings,Wingdings_MSFontService,sans-serif" font-weight="700" font-size="15" transform="matrix(-1.83697e-16 -1 1 -1.83697e-16 906.545 392)"></text><rect x="894.5" y="351.5" width="16" height="17" stroke="#000000" stroke-width="1.33333" stroke-miterlimit="8" fill="#FFFFFF"/><text font-family="Calibri,Calibri_MSFontService,sans-serif" font-weight="400" font-size="19" transform="translate(896.899 365)">0</text><text font-family="Calibri,Calibri_MSFontService,sans-serif" font-weight="400" font-size="15" transform="translate(890.25 410)">The</text><path d="M0 3.00001 10.4948 3.00001 10.4948 0 17 6 10.4948 12 10.4948 9.00001 0 9.00001Z" stroke="#172C51" stroke-width="1.33333" stroke-miterlimit="8" fill="#F4B183" fill-rule="evenodd" transform="matrix(1 -1.22465e-16 -1.22465e-16 -1 869.5 396.5)"/><rect x="432.5" y="375.5" width="42" height="14" stroke="#000000" stroke-miterlimit="8" fill="#FFFFFF"/><rect x="430.5" y="379.5" width="42" height="14" stroke="#000000" stroke-miterlimit="8" fill="#FFFFFF"/><rect x="427.5" y="383.5" width="14" height="14" stroke="#A6A6A6" stroke-width="0.333333" stroke-miterlimit="8" fill="#9DC3E6"/><rect x="441.5" y="383.5" width="14" height="14" stroke="#A6A6A6" stroke-width="0.333333" stroke-miterlimit="8" fill="#F6B3B3"/><rect x="455.5" y="383.5" width="14" height="14" stroke="#A6A6A6" stroke-width="0.333333" stroke-miterlimit="8" fill="#5B9BD5"/><text font-family="Calibri,Calibri_MSFontService,sans-serif" font-weight="700" font-size="16" transform="translate(423.192 413)">Context</text><path d="M446.989 382.835 446.882 368.171 448.215 368.162 448.322 382.826ZM443.558 369.529 447.5 361.5 451.558 369.471Z"/><rect x="427.5" y="383.5" width="41" height="14" stroke="#000000" stroke-miterlimit="8" fill="none"/><text font-family="Calibri,Calibri_MSFontService,sans-serif" font-weight="700" font-size="12" transform="translate(433.005 360)">lower</text><rect x="896.5" y="261.5" width="12" height="11" stroke="#000000" stroke-width="1.33333" stroke-miterlimit="8" fill="#7FBE89"/><rect x="896.5" y="272.5" width="12" height="12" stroke="#000000" stroke-width="1.33333" stroke-miterlimit="8" fill="#C9E9D1"/><rect x="896.5" y="284.5" width="12" height="12" stroke="#000000" stroke-width="1.33333" stroke-miterlimit="8" fill="#7FBE89"/><text font-family="Calibri,Calibri_MSFontService,sans-serif" font-weight="700" font-size="15" transform="translate(826 221)">Norm</text><text font-family="Calibri,Calibri_MSFontService,sans-serif" font-weight="700" font-size="15" transform="translate(860.667 221)">-</text><text font-family="Calibri,Calibri_MSFontService,sans-serif" font-weight="700" font-size="15" transform="translate(865.167 221)">Feature</text><text font-family="Calibri,Calibri_MSFontService,sans-serif" font-weight="700" font-size="15" transform="translate(831.247 238)"></text><text font-family="Calibri,Calibri_MSFontService,sans-serif" font-weight="700" font-size="15" transform="translate(834.58 238)">Coefficients</text><rect x="927.5" y="261.5" width="12" height="11" stroke="#000000" stroke-width="1.33333" stroke-miterlimit="8" fill="#C9E9D1"/><rect x="927.5" y="272.5" width="12" height="12" stroke="#000000" stroke-width="1.33333" stroke-miterlimit="8" fill="#B0E0B8"/><rect x="927.5" y="284.5" width="12" height="12" stroke="#000000" stroke-width="1.33333" stroke-miterlimit="8" fill="#7FBE89"/><rect x="973.5" y="261.5" width="12" height="11" stroke="#000000" stroke-width="1.33333" stroke-miterlimit="8" fill="#7FBE89"/><rect x="973.5" y="272.5" width="12" height="12" stroke="#000000" stroke-width="1.33333" stroke-miterlimit="8" fill="#B0E0B8"/><rect x="973.5" y="284.5" width="12" height="12" stroke="#000000" stroke-width="1.33333" stroke-miterlimit="8" fill="#C9E9D1"/><rect x="939.5" y="206.5" width="12" height="12" stroke="#000000" stroke-width="1.33333" stroke-miterlimit="8" fill="#FAEDB8"/><rect x="939.5" y="218.5" width="12" height="12" stroke="#000000" stroke-width="1.33333" stroke-miterlimit="8" fill="#FAEDB8"/><rect x="939.5" y="230.5" width="12" height="11" stroke="#000000" stroke-width="1.33333" stroke-miterlimit="8" fill="#FAEDB8"/><path d="M0.310944-0.589711 30.5086 15.333 29.8867 16.5124-0.310944 0.589711ZM30.8839 11.7625 36.0948 19.0321 27.1526 18.8391Z" transform="matrix(1 0 0 -1 902.5 260.532)"/><path d="M0.568324-0.348501 8.75397 13.0004 7.61732 13.6974-0.568324 0.348501ZM10.8986 10.1212 11.6707 19.0321 4.07871 14.3032Z" transform="matrix(1 0 0 -1 933.5 260.532)"/><path d="M979.537 261.278 957.575 245.874 958.341 244.782 980.303 260.186ZM956.753 249.369 952.5 241.5 961.347 242.819Z"/><text font-family="Calibri,Calibri_MSFontService,sans-serif" font-weight="700" font-size="16" transform="translate(555.233 328)">(1) Context Utilization Detection</text><rect x="925.5" y="351.5" width="16" height="17" stroke="#000000" stroke-width="1.33333" stroke-miterlimit="8" fill="#FFFFFF"/><text font-family="Calibri,Calibri_MSFontService,sans-serif" font-weight="400" font-size="19" transform="translate(928.527 365)">0</text><text font-family="Calibri,Calibri_MSFontService,sans-serif" font-weight="700" font-size="19" transform="translate(946.017 391)">…</text><rect x="971.5" y="351.5" width="16" height="18" stroke="#000000" stroke-width="1.33333" stroke-miterlimit="8" fill="#FFFFFF"/><text font-family="Calibri,Calibri_MSFontService,sans-serif" font-weight="400" font-size="19" transform="translate(974.401 366)">1</text><text font-family="Wingdings,Wingdings_MSFontService,sans-serif" font-weight="700" font-size="15" transform="matrix(-1.83697e-16 -1 1 -1.83697e-16 938.345 392)"></text><text font-family="Wingdings,Wingdings_MSFontService,sans-serif" font-weight="700" font-size="15" transform="matrix(-1.83697e-16 -1 1 -1.83697e-16 984.874 392)"></text><text font-family="Calibri,Calibri_MSFontService,sans-serif" font-weight="400" font-size="15" transform="translate(919.861 410)">seco</text><text font-family="Calibri,Calibri_MSFontService,sans-serif" font-weight="700" font-size="15" transform="translate(887.545 434)">Detection Results</text><text font-family="Calibri,Calibri_MSFontService,sans-serif" font-weight="400" font-size="15" transform="translate(963.803 410)">lower</text><path d="M0.66666-0.00290572 0.874244 47.623-0.459077 47.6288-0.66666 0.00290572ZM4.20173 46.2751 0.23664 54.2925-3.79819 46.31Z" transform="matrix(1 0 0 -1 902.5 350.793)"/><path d="M932.844 350.793 932.835 303.167 934.168 303.167 934.178 350.792ZM929.502 304.501 933.5 296.5 937.502 304.499Z"/><path d="M978.904 351.377 978.842 303.168 980.175 303.166 980.237 351.375ZM975.51 304.505 979.5 296.5 983.51 304.495Z"/><text font-family="Calibri,Calibri_MSFontService,sans-serif" font-weight="700" font-size="19" transform="translate(948.667 279)">…</text><rect x="973.5" y="165.5" width="12" height="12" stroke="#000000" stroke-width="1.33333" stroke-miterlimit="8" fill="#9FEBF3"/><rect x="927.5" y="165.5" width="12" height="12" stroke="#000000" stroke-width="1.33333" stroke-miterlimit="8" fill="#9FEBF3"/><rect x="895.5" y="165.5" width="12" height="12" stroke="#000000" stroke-width="1.33333" stroke-miterlimit="8" fill="#9FEBF3"/><rect x="774" y="200" width="7" height="27" stroke="#000000" stroke-width="2" stroke-miterlimit="8" fill="#9FEBF3"/><rect x="722" y="227" width="7" height="5" stroke="#000000" stroke-width="2" stroke-miterlimit="8" fill="#96DCF8"/><rect x="697" y="227" width="7" height="5" stroke="#000000" stroke-width="2" stroke-miterlimit="8" fill="#96DCF8"/><rect x="812" y="227" width="10" height="6" stroke="#000000" stroke-width="2" stroke-miterlimit="8" fill="#FFFFFF"/><rect x="659" y="227" width="31" height="6" stroke="#000000" stroke-width="2" stroke-miterlimit="8" fill="#FFFFFF"/><text font-family="Calibri,Calibri_MSFontService,sans-serif" font-weight="700" font-size="19" transform="translate(744.653 215)">…</text><text font-family="Calibri,Calibri_MSFontService,sans-serif" font-weight="700" font-size="19" transform="translate(792.689 215)">…</text><text font-family="Calibri,Calibri_MSFontService,sans-serif" font-weight="400" font-size="15" transform="translate(686.829 251)">The</text><text font-family="Calibri,Calibri_MSFontService,sans-serif" font-weight="400" font-size="15" transform="translate(717.639 251)">seco</text><text font-family="Calibri,Calibri_MSFontService,sans-serif" font-weight="400" font-size="15" transform="translate(765.248 251)">lower</text><text font-family="Calibri,Calibri_MSFontService,sans-serif" font-weight="700" font-size="15" transform="translate(709.61 274)">Utilization</text><text font-family="Calibri,Calibri_MSFontService,sans-serif" font-weight="700" font-size="15" transform="translate(704.776 291)">Distribution</text><text font-family="Calibri,Calibri_MSFontService,sans-serif" font-weight="700" font-size="19" transform="translate(948.725 171)">…</text><path d="M901.588 165.5 901.588 154.3 902.255 154.967 701.5 154.967 702.167 154.3 702.167 221.423 700.833 221.423 700.833 153.634 902.921 153.634 902.921 165.5ZM705.5 220.09 701.5 228.09 697.5 220.09Z"/><path d="M932.838 165.5 932.838 154.3 933.505 154.967 725.5 154.967 726.167 154.3 726.167 221.509 724.833 221.509 724.833 153.633 934.172 153.633 934.172 165.5ZM729.5 220.176 725.5 228.176 721.5 220.176Z"/><path d="M978.568 165.5 978.568 154.3 979.235 154.967 777.5 154.967 778.167 154.3 778.167 193.95 776.833 193.95 776.833 153.633 979.901 153.633 979.901 165.5ZM781.5 192.617 777.5 200.617 773.5 192.617Z"/><path d="M944.777 207.282 906.669 181.763 907.41 180.656 945.519 206.175ZM905.922 185.275 901.5 177.5 910.373 178.628Z"/><path d="M944.596 206.977 935.361 183.936 936.599 183.44 945.834 206.48ZM932.763 186.414 933.5 177.5 940.189 183.438Z"/><path d="M0.433861-0.506171 29.472 24.3837 28.6043 25.396-0.433861 0.506171ZM30.629 20.9851 34.0998 29.2285 25.4226 27.0591Z" transform="matrix(1 0 0 -1 945.5 206.729)"/><text font-family="Calibri,Calibri_MSFontService,sans-serif" font-weight="700" font-size="16" transform="translate(182.298 136)">(</text><text font-family="Calibri,Calibri_MSFontService,sans-serif" font-weight="700" font-size="16" transform="translate(187.298 136)">0</text><text font-family="Calibri,Calibri_MSFontService,sans-serif" font-weight="700" font-size="16" transform="translate(195.464 136)">) Input</text><text font-family="Calibri,Calibri_MSFontService,sans-serif" font-weight="700" font-size="16" transform="translate(350.592 136)">(</text><text font-family="Calibri,Calibri_MSFontService,sans-serif" font-weight="700" font-size="16" transform="translate(355.592 136)">3</text><text font-family="Calibri,Calibri_MSFontService,sans-serif" font-weight="700" font-size="16" transform="translate(363.759 136)">) Generating More Faithful Answers</text><text font-family="Calibri,Calibri_MSFontService,sans-serif" font-weight="700" font-size="15" transform="translate(520.019 274)"></text><text font-family="Calibri,Calibri_MSFontService,sans-serif" font-weight="700" font-size="15" transform="translate(523.352 274)">Token</text><text font-family="Calibri,Calibri_MSFontService,sans-serif" font-weight="700" font-size="15" transform="translate(560.685 274)">-</text><text font-family="Calibri,Calibri_MSFontService,sans-serif" font-weight="700" font-size="15" transform="translate(565.185 274)">Level</text><text font-family="Calibri,Calibri_MSFontService,sans-serif" font-weight="700" font-size="15" transform="translate(486.852 291)">Probability Distribution</text><text font-family="Calibri,Calibri_MSFontService,sans-serif" font-weight="700" font-size="16" transform="translate(693.547 136)">(</text><text font-family="Calibri,Calibri_MSFontService,sans-serif" font-weight="700" font-size="16" transform="translate(698.547 136)">2</text><text font-family="Calibri,Calibri_MSFontService,sans-serif" font-weight="700" font-size="16" transform="translate(706.714 136)">) Utilization Distribution Construction</text><rect x="362" y="217" width="6" height="12" stroke="#000000" stroke-width="2" stroke-miterlimit="8" fill="#FFFFFF"/><rect x="335" y="204" width="6" height="24" stroke="#000000" stroke-width="2" stroke-miterlimit="8" fill="#FFFFFF"/><text font-family="Calibri,Calibri_MSFontService,sans-serif" font-weight="700" font-size="19" transform="translate(377.61 219)">…</text><text font-family="Calibri,Calibri_MSFontService,sans-serif" font-weight="400" font-size="15" transform="translate(326.746 252)">The</text><text font-family="Calibri,Calibri_MSFontService,sans-serif" font-weight="400" font-size="15" transform="translate(351.619 252)">seco</text><text font-family="Calibri,Calibri_MSFontService,sans-serif" font-weight="400" font-size="15" transform="translate(384.74 252)">lower</text><text font-family="Calibri,Calibri_MSFontService,sans-serif" font-weight="400" font-size="15" transform="translate(421.6 252)">upper</text><rect x="436" y="195" width="6" height="33" stroke="#000000" stroke-width="2" stroke-miterlimit="8" fill="#FFFFFF"/><text font-family="Calibri,Calibri_MSFontService,sans-serif" font-weight="700" font-size="19" transform="translate(413.38 219)">…</text><rect x="324" y="228" width="131" height="6" stroke="#000000" stroke-width="2" stroke-miterlimit="8" fill="#FFFFFF"/><rect x="399" y="182" width="6" height="26" stroke="#000000" stroke-width="2" stroke-miterlimit="8" fill="#9FEBF3"/><rect x="399" y="208" width="6" height="20" stroke="#000000" stroke-width="2" stroke-miterlimit="8" fill="#FFFFFF"/><rect x="533" y="216" width="6" height="12" stroke="#000000" stroke-width="2" stroke-miterlimit="8" fill="#FFFFFF"/><rect x="506" y="204" width="6" height="24" stroke="#000000" stroke-width="2" stroke-miterlimit="8" fill="#FFFFFF"/><text font-family="Calibri,Calibri_MSFontService,sans-serif" font-weight="700" font-size="19" transform="translate(548.363 219)">…</text><text font-family="Calibri,Calibri_MSFontService,sans-serif" font-weight="400" font-size="15" transform="translate(497.499 252)">The</text><text font-family="Calibri,Calibri_MSFontService,sans-serif" font-weight="400" font-size="15" transform="translate(522.372 252)">seco</text><text font-family="Calibri,Calibri_MSFontService,sans-serif" font-weight="400" font-size="15" transform="translate(555.493 252)">lower</text><text font-family="Calibri,Calibri_MSFontService,sans-serif" font-weight="400" font-size="15" transform="translate(592.353 252)">upper</text><rect x="607" y="194" width="6" height="34" stroke="#000000" stroke-width="2" stroke-miterlimit="8" fill="#FFFFFF"/><text font-family="Calibri,Calibri_MSFontService,sans-serif" font-weight="700" font-size="19" transform="translate(584.133 219)">…</text><rect x="495" y="228" width="131" height="6" stroke="#000000" stroke-width="2" stroke-miterlimit="8" fill="#FFFFFF"/><rect x="569" y="207" width="7" height="21" stroke="#000000" stroke-width="2" stroke-miterlimit="8" fill="#FFFFFF"/><text font-family="Calibri,Calibri_MSFontService,sans-serif" font-weight="700" font-size="15" transform="translate(374.426 274)">Final</text><text font-family="Calibri,Calibri_MSFontService,sans-serif" font-weight="700" font-size="15" transform="translate(352.506 291)">Distribution</text><path d="M0 3.25 16.9527 3.25 16.9527 0 24 6.5 16.9527 13 16.9527 9.75 0 9.75Z" stroke="#172C51" stroke-width="1.33333" stroke-miterlimit="8" fill="#F4B183" fill-rule="evenodd" transform="matrix(-1 0 0 1 651.5 203.5)"/><path d="M0 3.25 16.9527 3.25 16.9527 0 24 6.5 16.9527 13 16.9527 9.75 0 9.75Z" stroke="#172C51" stroke-width="1.33333" stroke-miterlimit="8" fill="#F4B183" fill-rule="evenodd" transform="matrix(-1 0 0 1 487.5 203.5)"/><g><g><g><path d="M411.525 157.95 398.725 170.05 392.575 163.75 390.45 165.775 398.625 174.175 400.775 172.175 413.55 160.05Z" fill="#00B44D"/></g></g></g><g><g><g><path d="M618.719 171.495 616.505 169.281 609.5 176.286 602.495 169.281 600.281 171.495 607.286 178.5 600.281 185.505 602.495 187.719 609.5 180.714 616.505 187.719 618.719 185.505 611.714 178.5Z" fill="#FF0000"/></g></g></g><path d="" transform="translate(145.992 432)"/><path d="M21.6904-3.01514 19.9834-0.0742188 16.8105 0.714355 13.5264 3.99854 10.5391 3.99854 7.25488 0.714355 4.04492-0.13916 2.375-3.02441 3.30273-6.67041 2.375-10.3164 4.03564-13.2017 7.25488-14.0552 10.5391-17.3394 13.5264-17.3394 16.8105-14.0552 20.0205-13.2017 21.6904-10.3164 20.7627-6.67041Z" transform="translate(145.992 432)"/><path d="M19.3618-1.66992 17.7383-2.60693 18.1372-1.00195 16.8477-0.667969 16.1333-3.53467 13.9531-4.79639C13.6068-4.45003 13.1893-4.21501 12.7007-4.09131L12.7007-1.61426 14.9736 0.667969 14.0366 1.60498 12.7007 0.27832 12.7007 2.6626 11.3647 2.6626 11.3647 0.27832 10.0381 1.60498 9.0918 0.667969 11.3647-1.61426 11.3647-4.10059C11.1359-4.16862 10.9163-4.26139 10.7061-4.37891 10.4958-4.49642 10.3102-4.64176 10.1494-4.81494L7.94141-3.53467 7.21777-0.667969 5.92822-1.00195 6.32715-2.60693 4.70361-1.66064 4.03564-2.82031 5.64062-3.74805 4.03564-4.14697 4.36963-5.43652 7.30127-4.70361 9.49072-5.97461C9.42269-6.20964 9.38867-6.44157 9.38867-6.67041 9.38867-6.89925 9.42269-7.13118 9.49072-7.36621L7.30127-8.63721 4.36963-7.89502 4.03564-9.19385 5.64062-9.59277 4.02637-10.5205 4.69434-11.6802 6.32715-10.7339 5.92822-12.3389 7.21777-12.6729 7.94141-9.80615 10.1494-8.52588C10.3102-8.69906 10.4958-8.8444 10.7061-8.96191 10.9163-9.07943 11.1359-9.1722 11.3647-9.24023L11.3647-11.7266 9.0918-14.0088 10.0381-14.9458 11.3647-13.6099 11.3647-16.0034 12.7007-16.0034 12.7007-13.6099 14.0366-14.9458 14.9736-14.0088 12.7007-11.7266 12.7007-9.24951C13.1893-9.12581 13.6068-8.89079 13.9531-8.54443L16.1333-9.80615 16.8477-12.6729 18.1372-12.3389 17.7383-10.7339 19.3711-11.6709 20.0391-10.5205 18.4341-9.59277 20.0391-9.19385 19.7051-7.89502 16.7734-8.63721 14.6118-7.38477C14.6427-7.26725 14.669-7.14974 14.6907-7.03223 14.7123-6.91471 14.7231-6.79411 14.7231-6.67041 14.7231-6.54671 14.7123-6.42611 14.6907-6.30859 14.669-6.19108 14.6427-6.07357 14.6118-5.95605L16.7734-4.70361 19.7051-5.43652 20.0391-4.14697 18.4341-3.74805 20.0391-2.82031ZM12.0605-5.33447C12.2461-5.33447 12.4193-5.37004 12.5801-5.44116 12.7409-5.51229 12.8816-5.60815 13.0022-5.72876 13.1228-5.84937 13.2171-5.99007 13.2852-6.15088 13.3532-6.31169 13.3872-6.48486 13.3872-6.67041 13.3872-6.85596 13.3532-7.02913 13.2852-7.18994 13.2171-7.35075 13.1228-7.49145 13.0022-7.61206 12.8816-7.73267 12.7409-7.82853 12.5801-7.89966 12.4193-7.97078 12.2461-8.00635 12.0605-8.00635 11.875-8.00635 11.7018-7.97078 11.541-7.89966 11.3802-7.82853 11.2395-7.73267 11.1189-7.61206 10.9983-7.49145 10.9024-7.35075 10.8313-7.18994 10.7602-7.02913 10.7246-6.85596 10.7246-6.67041 10.7246-6.48486 10.7602-6.31169 10.8313-6.15088 10.9024-5.99007 10.9983-5.84937 11.1189-5.72876 11.2395-5.60815 11.3802-5.51229 11.541-5.44116 11.7018-5.37004 11.875-5.33447 12.0605-5.33447Z" fill="#69EAFF" transform="translate(145.992 432)"/><text fill="#000000" fill-opacity="0" font-family="Arial,Arial_MSFontService,sans-serif" font-size="18.666" x="4.02637" y="0.329346">❄️</text><rect x="194.5" y="348.5" width="36" height="29" stroke="#000000" stroke-width="1.33333" stroke-miterlimit="8" fill="#F6B3B3"/><rect x="232.5" y="348.5" width="36" height="29" stroke="#000000" stroke-width="1.33333" stroke-miterlimit="8" fill="#F7F7F7"/><text font-family="DengXian,DengXian_MSFontService,sans-serif" font-weight="400" font-size="24" transform="translate(241.506 370)">…</text><rect x="271.5" y="348.5" width="36" height="29" stroke="#000000" stroke-width="1.33333" stroke-miterlimit="8" fill="#F7F7F7"/><rect x="155.5" y="348.5" width="36" height="29" stroke="#000000" stroke-width="1.33333" stroke-miterlimit="8" fill="#F7F7F7"/><text font-family="DengXian,DengXian_MSFontService,sans-serif" font-weight="400" font-size="24" transform="translate(164.573 370)">…</text><rect x="117.5" y="348.5" width="36" height="29" stroke="#000000" stroke-width="1.33333" stroke-miterlimit="8" fill="#F7F7F7"/><text font-family="Calibri,Calibri_MSFontService,sans-serif" font-weight="700" font-size="15" transform="translate(838.312 274)">Feature</text><text font-family="Calibri,Calibri_MSFontService,sans-serif" font-weight="700" font-size="15" transform="translate(838.566 291)">Vectors</text><text fill="#FFFFFF" font-family="Calibri,Calibri_MSFontService,sans-serif" font-weight="700" font-size="13" transform="translate(732.335 366)">0.3</text><text fill="#FFFFFF" font-family="Calibri,Calibri_MSFontService,sans-serif" font-weight="700" font-size="13" transform="translate(732.335 389)">0.1</text><text fill="#FFFFFF" font-family="Calibri,Calibri_MSFontService,sans-serif" font-weight="700" font-size="13" transform="translate(732.205 413)">0.1</text><text fill="#FFFFFF" font-family="Calibri,Calibri_MSFontService,sans-serif" font-weight="700" font-size="13" transform="translate(613.703 389)">0.3</text><text font-family="Microsoft YaHei,Microsoft YaHei_MSFontService,sans-serif" font-weight="700" font-size="15" transform="translate(122.725 159)">Context:</text><text font-family="Microsoft YaHei,Microsoft YaHei_MSFontService,sans-serif" font-weight="700" font-size="15" transform="translate(122.725 177)">The</text><text font-family="Microsoft YaHei,Microsoft YaHei_MSFontService,sans-serif" font-weight="400" font-size="15" transform="translate(149.891 177)"></text><text font-family="Microsoft YaHei,Microsoft YaHei_MSFontService,sans-serif" font-weight="400" font-size="15" transform="translate(154.225 177)">secondary level</text><path d="M122.725 179.404 149.725 179.404 149.725 180.404 122.725 180.404Z" fill-rule="evenodd"/><text font-family="Microsoft YaHei,Microsoft YaHei_MSFontService,sans-serif" font-weight="400" font-size="15" transform="translate(122.725 194)">includes schools offering</text><text font-family="Microsoft YaHei,Microsoft YaHei_MSFontService,sans-serif" font-weight="400" font-size="15" transform="translate(122.725 212)">years</text><text font-family="Microsoft YaHei,Microsoft YaHei_MSFontService,sans-serif" font-weight="400" font-size="15" transform="translate(163.891 212)">7</text><text font-family="Microsoft YaHei,Microsoft YaHei_MSFontService,sans-serif" font-weight="400" font-size="15" transform="translate(176.891 212)">through</text><text font-family="Microsoft YaHei,Microsoft YaHei_MSFontService,sans-serif" font-weight="400" font-size="15" transform="translate(238.058 212)">12</text><text font-family="Microsoft YaHei,Microsoft YaHei_MSFontService,sans-serif" font-weight="400" font-size="15" transform="translate(259.725 212)">(year</text><text font-family="Microsoft YaHei,Microsoft YaHei_MSFontService,sans-serif" font-weight="400" font-size="15" transform="translate(122.725 230)">twelve is known as</text><text font-family="Microsoft YaHei,Microsoft YaHei_MSFontService,sans-serif" font-weight="700" font-size="15" transform="translate(257.725 230)">lower</text><text fill="#FF0000" font-family="Microsoft YaHei,Microsoft YaHei_MSFontService,sans-serif" font-weight="700" font-size="15" transform="translate(298.891 230)"></text><path d="M257.725 232.404 298.725 232.404 298.725 233.404 257.725 233.404Z" fill-rule="evenodd"/><text font-family="Microsoft YaHei,Microsoft YaHei_MSFontService,sans-serif" font-weight="400" font-size="15" transform="translate(122.725 247)">six and year</text><text font-family="Microsoft YaHei,Microsoft YaHei_MSFontService,sans-serif" font-weight="400" font-size="15" transform="translate(210.391 247)">13</text><text font-family="Microsoft YaHei,Microsoft YaHei_MSFontService,sans-serif" font-weight="400" font-size="15" transform="translate(232.058 247)">(</text><text font-family="Microsoft YaHei,Microsoft YaHei_MSFontService,sans-serif" font-weight="700" font-size="15" transform="translate(236.891 247)">upper</text><text font-family="Microsoft YaHei,Microsoft YaHei_MSFontService,sans-serif" font-weight="700" font-size="15" transform="translate(280.725 247)"></text><text font-family="Microsoft YaHei,Microsoft YaHei_MSFontService,sans-serif" font-weight="700" font-size="15" transform="translate(285.058 247)">…</text><text font-family="Microsoft YaHei,Microsoft YaHei_MSFontService,sans-serif" font-weight="400" font-size="15" transform="translate(299.225 247)"></text><path d="M236.725 249.404 280.725 249.404 280.725 250.404 236.725 250.404Z" fill-rule="evenodd"/><text font-family="Microsoft YaHei,Microsoft YaHei_MSFontService,sans-serif" font-weight="700" font-size="15" transform="translate(122.725 265)">Question:</text><text font-family="Microsoft YaHei,Microsoft YaHei_MSFontService,sans-serif" font-weight="400" font-size="15" transform="translate(122.725 282)">What is another term for</text><text font-family="Microsoft YaHei,Microsoft YaHei_MSFontService,sans-serif" font-weight="400" font-size="15" transform="translate(122.725 300)">year</text><text font-family="Microsoft YaHei,Microsoft YaHei_MSFontService,sans-serif" font-weight="400" font-size="15" transform="translate(157.058 300)">12</text><text font-family="Microsoft YaHei,Microsoft YaHei_MSFontService,sans-serif" font-weight="400" font-size="15" transform="translate(178.725 300)">of education?</text><text fill="#00B0F0" font-family="Arial,Arial_MSFontService,sans-serif" font-weight="400" font-size="15" transform="translate(145.816 430)"></text><text font-family="DengXian,DengXian_MSFontService,sans-serif" font-weight="400" font-size="15" transform="translate(165.816 430)"></text><text font-family="Calibri,Calibri_MSFontService,sans-serif" font-weight="700" font-size="15" transform="translate(169.816 430)">Multi</text><text font-family="Calibri,Calibri_MSFontService,sans-serif" font-weight="700" font-size="15" transform="translate(202.983 430)">-</text><text font-family="Calibri,Calibri_MSFontService,sans-serif" font-weight="700" font-size="15" transform="translate(207.483 430)">Head Attention</text><text font-family="Calibri,Calibri_MSFontService,sans-serif" font-weight="400" font-size="15" transform="translate(194.375 368)">lower</text><text font-family="Calibri,Calibri_MSFontService,sans-serif" font-weight="400" font-size="15" transform="translate(124.132 368)">The</text><text font-family="Calibri,Calibri_MSFontService,sans-serif" font-weight="400" font-size="15" transform="translate(270.85 368)">upper</text><rect x="689" y="227" width="123" height="6" stroke="#000000" stroke-width="2" stroke-miterlimit="8" fill="#9FEBF3"/></g></svg>